<svg xmlns="http://www.w3.org/2000/svg" viewBox="0 0 64 64" fill="none">
  <!-- Lobster claw icon — geometric/luxury style -->
  <defs>
    <linearGradient id="cg" x1="0" y1="0" x2="1" y2="1">
      <stop offset="0%" stop-color="#E8721A"/>
      <stop offset="100%" stop-color="#D4580A"/>
    </linearGradient>
  </defs>
  <!-- Upper pincer -->
  <path d="M32 4 C22 4 14 10 12 20 C10 28 14 34 20 36 L32 30 Z" fill="url(#cg)" opacity="0.95"/>
  <!-- Lower pincer -->
  <path d="M32 4 C42 4 50 10 52 20 C54 28 50 34 44 36 L32 30 Z" fill="url(#cg)" opacity="0.85"/>
  <!-- Body/arm -->
  <path d="M26 34 L32 30 L38 34 L36 52 C36 56 34 60 32 60 C30 60 28 56 28 52 Z" fill="url(#cg)" opacity="0.9"/>
  <!-- Inner gap highlight -->
  <path d="M29 10 L32 28 L35 10 C34 8 30 8 29 10Z" fill="#0a0a0a" opacity="0.7"/>
  <!-- Subtle shell texture lines -->
  <line x1="18" y1="22" x2="28" y2="28" stroke="#0a0a0a" stroke-width="0.5" opacity="0.3"/>
  <line x1="46" y1="22" x2="36" y2="28" stroke="#0a0a0a" stroke-width="0.5" opacity="0.3"/>
</svg>
